<svg xmlns="http://www.w3.org/2000/svg" viewBox="0 0 320 200" fill="none">
  <defs>
    <linearGradient id="bgF" x1="0" y1="0" x2="320" y2="200" gradientUnits="userSpaceOnUse">
      <stop stop-color="#3b0764"/>
      <stop offset="1" stop-color="#581c87"/>
    </linearGradient>
  </defs>
  <rect width="320" height="200" rx="24" fill="url(#bgF)"/>
  <path d="M160 44c-22 0-38 16-38 36 0 14 8 26 20 32v18c0 8 8 14 18 14s18-6 18-14v-18c12-6 20-18 20-32 0-20-16-36-38-36z" stroke="#f0abfc" stroke-width="2.5"/>
  <path d="M122 118c10 22 76 22 76 0" stroke="#e879f9" stroke-width="2.5" stroke-linecap="round"/>
  <path d="M108 132c16 18 88 18 104 0" stroke="#d946ef" stroke-width="2" stroke-linecap="round" opacity="0.85"/>
  <circle cx="132" cy="88" r="4" fill="#fce7f3"/>
  <circle cx="188" cy="88" r="4" fill="#fce7f3"/>
</svg>
